# xmcd
#
# Track frame offsets: 
#        182
#        13932
#        26310
#        41450
#        53685
#        64847
#        79325
#        93977
#        106505
#        117860
#        132542
#        145312
#
# Disc length: 2126 seconds
#
# Revision: 0
# Processed by: cddbd v1.5.2PL0 Copyright (c) Steve Scherf et al.
# Submitted via: ExactAudioCopy v0.95b4
#
DISCID=99084c0c
DTITLE=The Originals - Baby, I'm For Real
DYEAR=1969
DGENRE=R&B
TTITLE0=We've Got A Way Out Of Love
TTITLE1=Green Grow The Lilacs
TTITLE2=Baby, I'm For Real
TTITLE3=I've Never Begged Before
TTITLE4=Red Sails In The Sunset
TTITLE5=One Life We Live
TTITLE6=Moment Of Truth
TTITLE7=Why WHen Love Is Gone
TTITLE8=When Will We Learn
TTITLE9=You're The One
TTITLE10=Love Is A Wonder
TTITLE11=You, Mysterious You
EXTD=
EXTT0=
EXTT1=
EXTT2=
EXTT3=
EXTT4=
EXTT5=
EXTT6=
EXTT7=
EXTT8=
EXTT9=
EXTT10=
EXTT11=
PLAYORDER=
